<svg width="398" height="147" viewBox="0 0 398 147" fill="none" xmlns="http://www.w3.org/2000/svg">
<g clip-path="url(#clip0_35_2)">
<path d="M94.0625 50.25C93.6042 53.125 92.7708 55.1875 91.5625 56.4375C90.3958 57.6875 88.3333 58.3125 85.375 58.3125C82.4167 58.3125 79.9792 57.2292 78.0625 55.0625V46.25C73.1875 46.625 67.625 46.875 61.375 47V100.938C61.375 110.521 61.8958 118.875 62.9375 126C59.6875 127.083 55.5833 127.625 50.625 127.625C45.7083 127.625 42.3542 127.083 40.5625 126L42.1875 105.875V47L24.4375 46.375V55.0625C23.8958 55.8542 22.8958 56.6042 21.4375 57.3125C19.9792 57.9792 18.1458 58.3125 15.9375 58.3125C13.7292 58.3125 12.0208 57.6875 10.8125 56.4375C9.64583 55.1875 8.8125 53.1458 8.3125 50.3125C7.85417 47.4792 7.625 44.5417 7.625 41.5C7.625 38.4167 8.02083 36.4583 8.8125 35.625C19.3542 36.125 32.7292 36.375 48.9375 36.375C65.1458 36.375 80.0417 36.125 93.625 35.625C94.4167 36.4583 94.8125 38.375 94.8125 41.375C94.8125 44.375 94.5625 47.3333 94.0625 50.25Z" fill="#FF0000"/>
<path d="M133.234 94.5469C133.234 89.2031 132.016 86.5312 129.578 86.5312C127.797 86.5312 126.094 87.0469 124.469 88.0781C122.844 89.0781 121.094 90.4844 119.219 92.2969C119.219 95.4219 119.125 106.688 118.938 126.094C115.469 126.688 112.625 126.984 110.406 126.984C108.219 126.984 106.328 126.688 104.734 126.094C105.109 120.906 105.297 112.016 105.297 99.4219V88.4531C105.297 86.0781 104.469 84.6719 102.812 84.2344C101.688 83.8906 100.172 83.6406 98.2656 83.4844C98.0469 82.5469 97.9375 81.8438 97.9375 81.375C97.9375 80.875 97.9531 80.4844 97.9844 80.2031C102.484 77.6719 108.047 76.4062 114.672 76.4062C115.766 76.4062 116.578 76.4219 117.109 76.4531C118.016 78.0156 118.547 79.6406 118.703 81.3281C118.891 83.0156 119.031 84.625 119.125 86.1562C123.312 81.0625 126.844 77.9688 129.719 76.875C131.094 76.3438 132.547 76.0781 134.078 76.0781C137.203 76.0781 139.703 76.9531 141.578 78.7031C143.484 80.4219 144.438 82.9531 144.438 86.2969C144.438 88.8594 143.5 91 141.625 92.7188C139.781 94.4062 137.547 95.25 134.922 95.25C134.359 95.25 133.797 95.2031 133.234 95.1094V94.5469ZM165.531 105.75C166.469 110.375 168.469 114.109 171.531 116.953C174.594 119.797 178.172 121.219 182.266 121.219C186.359 121.219 190.484 119.453 194.641 115.922C196.203 116.953 197.156 118.172 197.5 119.578C194.625 122.922 190.375 125.312 184.75 126.75C182.469 127.344 179.828 127.641 176.828 127.641C173.859 127.641 170.781 127.094 167.594 126C164.406 124.938 161.547 123.375 159.016 121.312C156.516 119.25 154.531 116.547 153.062 113.203C151.594 109.828 150.859 106.094 150.859 102C150.859 97.9062 151.609 94.2031 153.109 90.8906C154.609 87.5469 156.594 84.8125 159.062 82.6875C164.219 78.2188 170.125 75.9844 176.781 75.9844C182.625 75.9844 187.688 77.5625 191.969 80.7188C194.031 82.2812 195.672 84.3125 196.891 86.8125C198.141 89.2812 198.766 92.0781 198.766 95.2031C198.766 100.547 197 103.359 193.469 103.641L165.531 105.75ZM186.156 93.7969C186.156 90.0781 185.125 87.1719 183.062 85.0781C181 82.9844 178.297 81.9375 174.953 81.9375C171.609 81.9375 169.078 83.5156 167.359 86.6719C165.641 89.7969 164.781 94.1406 164.781 99.7031C172.562 98.8594 179.594 97.9688 185.875 97.0312C186.062 95.9062 186.156 94.8281 186.156 93.7969ZM245.453 115.828L245.922 97.9688C245.922 93.9062 245.781 91.3438 245.5 90.2812C245.25 89.2188 244.922 88.4219 244.516 87.8906C243.641 86.7969 242.359 86.25 240.672 86.25C238.984 86.25 237.547 86.4375 236.359 86.8125C233.922 87.625 230.797 89.9062 226.984 93.6562C226.984 97.7188 226.891 108.531 226.703 126.094C223.234 126.688 220.344 126.984 218.031 126.984C215.719 126.984 213.766 126.688 212.172 126.094C212.734 118.5 213.016 111.5 213.016 105.094C213.016 98.6562 212.938 93.1094 212.781 88.4531C212.781 86.0781 211.938 84.6719 210.25 84.2344C209.188 83.8906 207.688 83.6406 205.75 83.4844C205.562 82.6719 205.469 82.0312 205.469 81.5625C205.469 81.0625 205.531 80.6094 205.656 80.2031C210.156 77.6719 215.75 76.4062 222.438 76.4062C223.531 76.4062 224.344 76.4219 224.875 76.4531C226.094 78.5469 226.766 82.1406 226.891 87.2344C232.734 79.7344 239.578 75.9844 247.422 75.9844C251.047 75.9844 253.875 77.2188 255.906 79.6875C257.969 82.125 259.141 85.4375 259.422 89.625C259.547 91.5312 259.609 93.4375 259.609 95.3438C259.609 97.25 259.516 99.3125 259.328 101.531C258.797 108.281 258.531 113.453 258.531 117.047C258.531 117.859 259.109 118.484 260.266 118.922C261.422 119.359 262.547 119.578 263.641 119.578C264.766 119.578 265.531 119.516 265.938 119.391C266.312 120.234 266.5 121.016 266.5 121.734C266.5 122.422 266.469 122.891 266.406 123.141C260.562 126.172 256.203 127.688 253.328 127.688C250.453 127.688 248.422 126.719 247.234 124.781C246.047 122.812 245.453 119.828 245.453 115.828ZM323.312 62.8594L322.891 91.7344C322.891 98.3906 322.984 106.484 323.172 116.016C323.172 118.109 324.031 119.234 325.75 119.391C326.125 119.422 326.703 119.438 327.484 119.438C328.266 119.438 328.875 119.453 329.312 119.484C329.656 120.078 329.828 120.703 329.828 121.359C329.828 122.016 329.781 122.578 329.688 123.047C324.25 126.109 319.672 127.641 315.953 127.641C313.359 127.234 311.281 125.219 309.719 121.594C307.5 123.719 305.312 125.25 303.156 126.188C301 127.156 298.656 127.641 296.125 127.641C293.594 127.641 291.281 127.375 289.188 126.844C287.125 126.344 285.078 125.469 283.047 124.219C281.016 122.969 279.25 121.406 277.75 119.531C274.375 115.312 272.688 109.625 272.688 102.469C272.688 98.3125 273.469 94.5625 275.031 91.2188C276.594 87.875 278.688 85.1562 281.312 83.0625C286.688 78.7812 293.141 76.6406 300.672 76.6406C302.828 76.6406 305.812 76.9375 309.625 77.5312L309.344 65.1562C309.25 63.5938 308.656 62.3594 307.562 61.4531C306.5 60.5469 305.141 60.0156 303.484 59.8594C303.266 58.3281 303.156 57.4688 303.156 57.2812C303.156 57.0625 303.172 56.8281 303.203 56.5781C309.109 54.2969 315 53.1562 320.875 53.1562C321.156 53.1562 321.438 53.1562 321.719 53.1562C322.156 53.75 322.531 54.9844 322.844 56.8594C323.156 58.7344 323.312 60.7344 323.312 62.8594ZM303.016 83.4844C298.391 83.4844 294.594 84.9531 291.625 87.8906C288.688 90.8281 287.219 95.2812 287.219 101.25C287.219 105.344 287.688 108.688 288.625 111.281C289.594 113.844 290.656 115.719 291.812 116.906C294.094 119.25 296.484 120.422 298.984 120.422C301.484 120.422 303.391 120.047 304.703 119.297C306.016 118.547 307.656 117.062 309.625 114.844C309.844 110.719 309.953 105.703 309.953 99.7969C309.953 93.8594 309.906 88.6094 309.812 84.0469C307.5 83.6719 305.234 83.4844 303.016 83.4844ZM349.375 94.1719C349.375 94.4531 349.391 94.7188 349.422 94.9688C349.422 95.2812 348.719 95.625 347.312 96C345.906 96.3438 344.438 96.5156 342.906 96.5156C341.375 96.5156 339.859 95.7188 338.359 94.125C336.891 92.5312 336.156 90.125 336.156 86.9062C336.156 82.2188 338.328 79.0625 342.672 77.4375C344.859 76.5938 347.344 76.1719 350.125 76.1719C352.938 76.1719 358.047 76.4219 365.453 76.9219C372.859 77.3906 379.281 77.75 384.719 78C385.312 79.5938 385.609 81.2031 385.609 82.8281C385.609 84.4219 385.312 86.1406 384.719 87.9844L353.547 115.922C359.141 117.234 363.781 117.891 367.469 117.891C374.562 117.891 379.906 115.766 383.5 111.516C385.125 112.328 386.5 113.516 387.625 115.078C387.156 121.953 384.859 126.5 380.734 128.719C378.984 129.656 376.984 130.125 374.734 130.125C372.516 130.125 369.781 129.922 366.531 129.516C363.312 129.109 359.188 128.531 354.156 127.781C349.125 127.031 344.781 126.438 341.125 126C340.5 124.969 340.188 123.469 340.188 121.5C340.188 118.25 340.438 116.062 340.938 114.938L372.625 87.2344C365.344 86.4531 360.953 86.0625 359.453 86.0625C352.734 86.0625 349.375 88.7656 349.375 94.1719Z" fill="black"/>
</g>
<defs>
<clipPath id="clip0_35_2">
<rect width="398" height="147" fill="white"/>
</clipPath>
</defs>
</svg>
