<svg width="386" height="376" viewBox="0 0 386 376" fill="none" xmlns="http://www.w3.org/2000/svg">
<circle cx="193.5" cy="187.5" r="124.5" fill="white"/>
<path d="M260.035 141.641C259.319 146.133 258.017 149.355 256.129 151.309C254.306 153.262 251.083 154.238 246.461 154.238C241.839 154.238 238.03 152.546 235.035 149.16V135.391C227.418 135.977 218.727 136.367 208.961 136.562V220.84C208.961 235.814 209.775 248.867 211.402 260C206.324 261.693 199.911 262.539 192.164 262.539C184.482 262.539 179.241 261.693 176.441 260L178.98 228.555V136.562L151.246 135.586V149.16C150.4 150.397 148.837 151.569 146.559 152.676C144.28 153.717 141.415 154.238 137.965 154.238C134.514 154.238 131.845 153.262 129.957 151.309C128.134 149.355 126.832 146.165 126.051 141.738C125.335 137.311 124.977 132.721 124.977 127.969C124.977 123.151 125.595 120.091 126.832 118.789C143.303 119.57 164.202 119.961 189.527 119.961C214.853 119.961 238.128 119.57 259.352 118.789C260.589 120.091 261.207 123.086 261.207 127.773C261.207 132.461 260.816 137.083 260.035 141.641Z" fill="#FF0000"/>
</svg>
